<?xml version="1.0" encoding="iso-8859-1"?>
<!-- Uploaded to: SVG Repo, www.svgrepo.com, Generator: SVG Repo Mixer Tools -->
<svg height="800px" width="800px" version="1.1" id="Layer_1" xmlns="http://www.w3.org/2000/svg" xmlns:xlink="http://www.w3.org/1999/xlink" 
	 viewBox="0 0 392.465 392.465" xml:space="preserve">
<path style="fill:#FFFFFF;" d="M307.504,370.392c8.21-15.515,12.994-35.879,14.675-62.061
	c3.556-56.178,16.873-108.412,39.499-155.087c7.564-15.58,10.408-32.97,8.21-50.489c-5.236-41.956-39.434-74.925-83.135-80.226
	c-12.671-1.552-25.406-0.711-37.495,2.392c-34.715,8.986-71.564,8.986-106.279,0c-12.218-3.103-24.63-3.943-37.495-2.392
	C61.847,27.765,27.649,60.8,22.413,102.755c-2.133,17.39,0.646,34.844,8.21,50.489c0.065,0.065,0.065,0.129,0.129,0.323h49.325
	c6.012,0,10.925,4.848,10.925,10.925c0,6.012-4.848,10.925-10.925,10.925H40.385c2.715,6.659,5.236,13.382,7.564,20.234h17.325
	c6.012,0,10.925,4.848,10.925,10.925s-4.848,10.925-10.925,10.925H54.865c8.145,28.897,13.317,59.281,15.321,90.958
	c1.616,26.182,6.4,46.545,14.675,62.061c0.065,0.065,0.129,0.388,0.776,0.388c0.323,0,0.453-0.065,0.453-0.065
	c26.376-60.574,66.78-132.913,109.899-133.754c43.572,0.84,83.976,73.18,110.287,133.689l0.517,0.259
	C307.375,370.78,307.439,370.456,307.504,370.392z M277.314,66.877c-6.012,0-10.925-4.848-10.925-10.925
	c0-6.012,4.848-10.925,10.925-10.925c37.689,0,68.396,29.737,68.396,66.392c0,6.012-4.849,10.925-10.925,10.925
	c-6.012,0-10.925-4.848-10.925-10.925C323.924,86.852,303.043,66.877,277.314,66.877z"/>
<path style="fill:#56ACE0;" d="M348.231,105.535c-4.008-32-30.19-58.958-64.129-61.285c-26.053-1.745-61.608,10.149-87.919,9.374
	c-19.717-0.646-59.863-12.347-87.919-9.374c-33.745,3.62-60.121,29.285-64.129,61.285c-1.681,13.446,0.388,26.246,6.206,38.141
	c23.984,49.196,37.947,104.145,41.632,163.297c0,0.453,0.065,1.034,0.065,1.487c50.683-92.315,89.471-93.091,103.499-93.414
	c14.093,0.323,54.109,1.099,104.792,93.414c0-0.453,0.065-1.034,0.065-1.487c3.749-58.958,17.713-113.907,41.697-163.232
	C347.843,131.782,349.977,118.917,348.231,105.535z"/>
<g>
	<path style="fill:#194F82;" d="M277.314,45.091c-6.012,0-10.925,4.848-10.925,10.925c0,6.012,4.848,10.925,10.925,10.925
		c25.729,0,46.61,20.04,46.61,44.606c0,6.012,4.848,10.925,10.925,10.925s10.925-4.848,10.925-10.925
		C345.71,74.828,315.003,45.091,277.314,45.091z"/>
	<path style="fill:#194F82;" d="M391.544,100.105C385.08,48.194,342.995,7.402,289.403,0.937
		c-15.386-1.875-30.901-0.84-45.576,2.909c-31.095,8.016-64.194,8.016-95.289,0c-14.675-3.814-30.125-4.784-45.576-2.909
		C49.435,7.337,7.35,48.129,0.886,100.105c-2.715,21.657,0.84,43.248,10.279,62.642c21.398,44.154,34.004,93.608,37.301,146.877
		c1.875,29.349,7.434,52.558,17.131,70.853c9.568,17.713,33.875,14.545,40.598-1.422c32.129-73.891,66.715-120.113,89.859-120.566
		c23.596,0.453,58.182,46.675,90.311,120.566c8.792,18.877,33.616,15.968,40.598,1.422c9.762-18.295,15.321-41.503,17.131-70.853
		c3.297-53.398,15.903-102.788,37.301-146.877C390.769,143.418,394.324,121.761,391.544,100.105z M361.678,153.244
		c-22.691,46.675-36.008,98.909-39.499,155.087c-1.616,26.182-6.4,46.545-14.675,62.061c-0.065,0.065-0.129,0.388-0.776,0.388
		l-0.517-0.259c-26.246-60.444-66.65-132.784-110.287-133.624c-43.119,0.84-83.523,73.18-109.899,133.754
		c0,0-0.259,0.065-0.453,0.065c-0.517,0-0.711-0.259-0.776-0.388c-8.21-15.515-12.994-35.879-14.675-62.061
		c-2.004-31.677-7.176-62.061-15.321-90.958h10.537c6.012,0,10.925-4.848,10.925-10.925s-4.848-10.925-10.925-10.925H48.078
		c-2.392-6.788-4.848-13.576-7.564-20.234h39.693c6.012,0,10.925-4.848,10.925-10.925c0-6.012-4.848-10.925-10.925-10.925h-49.39
		c-0.065-0.065-0.065-0.129-0.129-0.323c-7.564-15.451-10.408-32.905-8.21-50.36c5.236-41.956,39.434-74.925,83.135-80.226
		c12.8-1.552,25.277-0.711,37.495,2.392c34.715,8.986,71.564,8.986,106.279,0c12.024-3.103,24.76-3.943,37.495-2.392
		c43.636,5.236,77.834,38.271,83.071,80.226C372.15,120.275,369.306,137.729,361.678,153.244z"/>
</g>
</svg>